<svg xmlns="http://www.w3.org/2000/svg" viewBox="0 0 1057.11 311.57"><defs><style>.cls-1{fill:#c3002f;}.cls-2{fill:#86754d;}.cls-3{fill:#00a887;}</style></defs><title>ASI-logo new</title><g id="Layer_2" data-name="Layer 2"><g id="Layer_1-2" data-name="Layer 1"><path class="cls-1" d="M658.71,117.09h10.87a14.05,14.05,0,0,1,4.44.64,9.28,9.28,0,0,1,3.2,1.75,7.44,7.44,0,0,1,1.95,2.61,7.91,7.91,0,0,1,.66,3.25,6.39,6.39,0,0,1-.62,2.89,7.87,7.87,0,0,1-1.45,2.06,6.29,6.29,0,0,1-1.66,1.23,3.32,3.32,0,0,1-1.31.4,8.51,8.51,0,0,1,2,.52,7,7,0,0,1,2.16,1.33,7.51,7.51,0,0,1,1.73,2.35,8,8,0,0,1,.71,3.54,9.29,9.29,0,0,1-.9,4.3,7.47,7.47,0,0,1-2.49,2.8,10.48,10.48,0,0,1-3.75,1.52,22.87,22.87,0,0,1-4.68.45H658.71Zm10.59,12.63a8.17,8.17,0,0,0,1.76-.19,4.4,4.4,0,0,0,1.54-.67,3.55,3.55,0,0,0,1.09-1.19,3.65,3.65,0,0,0,.4-1.8,3.46,3.46,0,0,0-.43-1.8,3.34,3.34,0,0,0-1.12-1.14,4.55,4.55,0,0,0-1.54-.59,9.07,9.07,0,0,0-1.71-.17h-4.84v7.55Zm.24,14a16.72,16.72,0,0,0,1.88-.12,5.76,5.76,0,0,0,1.92-.57,4,4,0,0,0,1.52-1.33,4.1,4.1,0,0,0,.62-2.4,4,4,0,0,0-.59-2.3,4.39,4.39,0,0,0-1.47-1.38,6,6,0,0,0-1.92-.69,10.81,10.81,0,0,0-1.95-.19h-5.08v9Z"/><path class="cls-1" d="M686.76,117.09h6V136a13.65,13.65,0,0,0,.35,3.25,6.39,6.39,0,0,0,1.16,2.47,5.17,5.17,0,0,0,2.14,1.57,10.09,10.09,0,0,0,6.55,0,5.19,5.19,0,0,0,2.14-1.57,6.39,6.39,0,0,0,1.16-2.47,13.51,13.51,0,0,0,.36-3.25V117.09h6v20a14,14,0,0,1-.85,4.94,11.17,11.17,0,0,1-2.52,4,11.93,11.93,0,0,1-4.06,2.66,15.91,15.91,0,0,1-11,0,11.88,11.88,0,0,1-4.06-2.66,11.17,11.17,0,0,1-2.52-4,14,14,0,0,1-.86-4.94Z"/><path class="cls-1" d="M719,117.09h6v31.66h-6Z"/><path class="cls-1" d="M731.62,117.09h6v26.34h15.62v5.32h-21.6Z"/><path class="cls-1" d="M757.87,117.09h11.82a23.06,23.06,0,0,1,6.79.95,14.46,14.46,0,0,1,5.32,2.9,13,13,0,0,1,3.47,5,19,19,0,0,1,1.23,7.17,17.26,17.26,0,0,1-1.26,6.86,13.47,13.47,0,0,1-3.51,4.89,14.77,14.77,0,0,1-5.34,2.94,22.36,22.36,0,0,1-6.74,1H757.87Zm11.25,26.34q5.41,0,8.26-2.61t2.85-7.64a11.27,11.27,0,0,0-2.63-7.88q-2.64-2.9-8.47-2.9h-5.27v21Z"/><path class="cls-1" d="M791.91,117.09h6v31.66h-6Z"/><path class="cls-1" d="M804.53,117.09h6l15.33,22.5v-22.5h5.84v31.66h-5.88L810.37,126v22.79h-5.84Z"/><path class="cls-1" d="M855,132h11.34v13.1a16.78,16.78,0,0,1-4.89,3.08,19.55,19.55,0,0,1-7.79,1.33,17.84,17.84,0,0,1-7-1.28,15.4,15.4,0,0,1-5.2-3.49,15.14,15.14,0,0,1-3.27-5.2,18,18,0,0,1-1.14-6.46,17.65,17.65,0,0,1,1.19-6.5,16.16,16.16,0,0,1,3.35-5.32,15.9,15.9,0,0,1,11.75-4.94,17.18,17.18,0,0,1,4.27.5,15.67,15.67,0,0,1,3.54,1.35,13.22,13.22,0,0,1,2.82,2,17,17,0,0,1,2.18,2.49L862,126.44a13.08,13.08,0,0,0-3.54-3.51,9,9,0,0,0-5.06-1.33,9.24,9.24,0,0,0-4.18.92,9.9,9.9,0,0,0-3.16,2.47,10.8,10.8,0,0,0-2,3.61,13.6,13.6,0,0,0-.69,4.34,12.11,12.11,0,0,0,.83,4.6,10.66,10.66,0,0,0,2.28,3.51,9.91,9.91,0,0,0,3.37,2.26,10.65,10.65,0,0,0,4.06.78q4.37,0,6.74-2.09v-4.94H855Z"/><path class="cls-1" d="M878.68,117.09h6.55l5.18,23.69L896.53,118h5.41l6.17,22.78,5.13-23.69h6.27l-8.31,31.66h-6.27L899,127.82l-6,20.93h-6.17Z"/><path class="cls-1" d="M923.53,117.09H944v5.27H929.52v7.45H940.2v5.32H929.52v8.26h15.62v5.36h-21.6Z"/><path class="cls-1" d="M959.61,117.09h6.17l12,31.66h-6.65l-2.75-8H956.62l-2.75,8H947.6Zm7.07,18.7-4.18-12.29-4.22,12.29Z"/><path class="cls-1" d="M981.54,117.09h6v26.34h15.62v5.32h-21.6Z"/><path class="cls-1" d="M1008.31,122.36H997.58v-5.27H1025v5.27h-10.73v26.39h-6Z"/><path class="cls-1" d="M1029.43,117.09h6v12.72h15.71V117.09h6v31.66h-6V135.13h-15.71v13.62h-6Z"/><path class="cls-1" d="M687.81,188.59a11.7,11.7,0,0,1-2,2.23,16.61,16.61,0,0,1-3,2.11,18.13,18.13,0,0,1-3.75,1.59,14.81,14.81,0,0,1-4.32.62,16.64,16.64,0,0,1-6.5-1.23,15.14,15.14,0,0,1-5.08-3.44,15.69,15.69,0,0,1-3.32-5.2,18.53,18.53,0,0,1,0-13.06,16.16,16.16,0,0,1,3.35-5.32A15.9,15.9,0,0,1,675,162a17.18,17.18,0,0,1,4.27.5,15.67,15.67,0,0,1,3.54,1.35,13.22,13.22,0,0,1,2.82,2,17,17,0,0,1,2.18,2.49l-4.22,3.75a13.08,13.08,0,0,0-3.54-3.51,9,9,0,0,0-5.06-1.33,9.24,9.24,0,0,0-4.18.92,9.9,9.9,0,0,0-3.16,2.47,10.8,10.8,0,0,0-2,3.61,13.6,13.6,0,0,0-.69,4.34,13,13,0,0,0,.69,4.27,10.4,10.4,0,0,0,2,3.47,9.44,9.44,0,0,0,3.06,2.33,9.14,9.14,0,0,0,4,.86,11.25,11.25,0,0,0,3.49-.48,9.23,9.23,0,0,0,4.18-2.68c.46-.52.88-1,1.26-1.35Z"/><path class="cls-1" d="M692.22,162.72h6v12.72h15.71V162.72h6v31.66h-6V180.76H698.21v13.62h-6Z"/><path class="cls-1" d="M735.66,162.72h6.17l12,31.66h-6.65l-2.75-8H732.67l-2.75,8h-6.27Zm7.07,18.7-4.18-12.29-4.22,12.29Z"/><path class="cls-1" d="M757.59,162.72h6l15.33,22.5v-22.5h5.84v31.66H778.9l-15.48-22.79v22.79h-5.84Z"/><path class="cls-1" d="M808.09,177.62h11.34v13.1a16.78,16.78,0,0,1-4.89,3.08,19.55,19.55,0,0,1-7.79,1.33,17.84,17.84,0,0,1-7-1.28,15.4,15.4,0,0,1-5.2-3.49,15.14,15.14,0,0,1-3.27-5.2,18,18,0,0,1-1.14-6.46,17.65,17.65,0,0,1,1.19-6.5,16.16,16.16,0,0,1,3.35-5.32A15.9,15.9,0,0,1,806.48,162a17.18,17.18,0,0,1,4.27.5,15.67,15.67,0,0,1,3.54,1.35,13.22,13.22,0,0,1,2.82,2,17,17,0,0,1,2.18,2.49l-4.22,3.75a13.08,13.08,0,0,0-3.54-3.51,9,9,0,0,0-5.06-1.33,9.24,9.24,0,0,0-4.18.92,9.9,9.9,0,0,0-3.16,2.47,10.8,10.8,0,0,0-2,3.61,13.6,13.6,0,0,0-.69,4.34,12.11,12.11,0,0,0,.83,4.6,10.66,10.66,0,0,0,2.28,3.51,9.91,9.91,0,0,0,3.37,2.26,10.65,10.65,0,0,0,4.06.78q4.37,0,6.74-2.09V182.7h-5.65Z"/><path class="cls-1" d="M825.75,162.72h6v31.66h-6Z"/><path class="cls-1" d="M838.38,162.72h6l15.33,22.5v-22.5h5.84v31.66h-5.88l-15.48-22.79v22.79h-5.84Z"/><path class="cls-1" d="M888.88,177.62h11.34v13.1a16.78,16.78,0,0,1-4.89,3.08,19.55,19.55,0,0,1-7.79,1.33,17.84,17.84,0,0,1-7-1.28,15.4,15.4,0,0,1-5.2-3.49,15.14,15.14,0,0,1-3.27-5.2,18,18,0,0,1-1.14-6.46,17.65,17.65,0,0,1,1.19-6.5,16.16,16.16,0,0,1,3.35-5.32A15.9,15.9,0,0,1,887.27,162a17.18,17.18,0,0,1,4.27.5,15.67,15.67,0,0,1,3.54,1.35,13.22,13.22,0,0,1,2.82,2,17,17,0,0,1,2.18,2.49l-4.22,3.75a13.08,13.08,0,0,0-3.54-3.51,9,9,0,0,0-5.06-1.33,9.24,9.24,0,0,0-4.18.92,9.9,9.9,0,0,0-3.16,2.47,10.8,10.8,0,0,0-2,3.61,13.6,13.6,0,0,0-.69,4.34,12.11,12.11,0,0,0,.83,4.6,10.66,10.66,0,0,0,2.28,3.51,9.91,9.91,0,0,0,3.37,2.26,10.65,10.65,0,0,0,4.06.78q4.37,0,6.74-2.09V182.7h-5.65Z"/><path class="cls-1" d="M915.13,162.72h6v26.34h15.62v5.32h-21.6Z"/><path class="cls-1" d="M941.38,162.72h6v31.66h-6Z"/><path class="cls-1" d="M951.11,162.72h6.65l8.4,24.16,8.4-24.16h6.27l-11.77,31.66h-6.17Z"/><path class="cls-1" d="M984.58,162.72h20.51V168H990.56v7.45h10.68v5.32H990.56V189h15.62v5.36h-21.6Z"/><path class="cls-1" d="M1013.87,185.45a18.41,18.41,0,0,0,1.35,1.4,12.88,12.88,0,0,0,1.76,1.37,9.91,9.91,0,0,0,2.18,1.07,8.14,8.14,0,0,0,2.73.43,5.85,5.85,0,0,0,4.15-1.28,4.09,4.09,0,0,0,1.35-3.08,4,4,0,0,0-.38-1.78,3.53,3.53,0,0,0-1.28-1.38,10,10,0,0,0-2.35-1.07,32.31,32.31,0,0,0-3.59-.9,12.54,12.54,0,0,1-3.77-1.33,9.65,9.65,0,0,1-2.63-2.14,8.62,8.62,0,0,1-1.57-2.73,9.19,9.19,0,0,1-.52-3.06,9,9,0,0,1,.67-3.44,7.91,7.91,0,0,1,2-2.9,10.28,10.28,0,0,1,3.44-2,14.09,14.09,0,0,1,4.87-.76,14.39,14.39,0,0,1,4.32.57,13.16,13.16,0,0,1,3,1.33,9,9,0,0,1,1.88,1.49l.95,1.07-3.94,3.7q-.24-.19-.76-.69a7.46,7.46,0,0,0-1.31-1,9.88,9.88,0,0,0-1.88-.86,7.49,7.49,0,0,0-2.47-.38,6.19,6.19,0,0,0-2.14.33,4.67,4.67,0,0,0-1.49.86,3.4,3.4,0,0,0-.88,1.16,3,3,0,0,0-.29,1.21,3.57,3.57,0,0,0,.31,1.52,3.4,3.4,0,0,0,1,1.23,7.14,7.14,0,0,0,2,1,23.32,23.32,0,0,0,3.23.83,17.46,17.46,0,0,1,3.56,1.14,10.91,10.91,0,0,1,3,2,9,9,0,0,1,2.09,2.94,10,10,0,0,1,.78,4.16,8.65,8.65,0,0,1-.86,3.84,9.7,9.7,0,0,1-2.37,3.08,10.91,10.91,0,0,1-3.61,2.07,13.65,13.65,0,0,1-4.56.74,15.16,15.16,0,0,1-4.3-.57,16.43,16.43,0,0,1-3.47-1.45,14,14,0,0,1-2.66-1.92,19.07,19.07,0,0,1-1.88-2Z"/><path class="cls-1" d="M507,228.64a73.42,73.42,0,0,0,21.94-3.22,56.59,56.59,0,0,0,17.63-8.9,43.26,43.26,0,0,0,11.66-13.47,34.26,34.26,0,0,0,4.23-16.74c0-7.1-1.19-13.12-3.54-17.88a38.86,38.86,0,0,0-9.15-12.15A46.11,46.11,0,0,0,537,148.41c-5-2.06-10-3.91-14.82-5.48l-7-2.18c-3.14-1-6.09-2.05-8.78-3a39.56,39.56,0,0,1-7.64-3.53A18.37,18.37,0,0,1,493.2,129a13.68,13.68,0,0,1-2.31-7.87,12.69,12.69,0,0,1,2.1-7.33,15,15,0,0,1,5-4.56,22.76,22.76,0,0,1,6.19-2.38,29.26,29.26,0,0,1,6.56-.75A46.51,46.51,0,0,1,529.34,110a82.4,82.4,0,0,1,10.28,5.38,1.5,1.5,0,0,0,2.21-.77l7.48-21.08a1.5,1.5,0,0,0-.73-1.83c-1.5-.79-3.11-1.56-4.81-2.29a83.19,83.19,0,0,0-14.63-4.59,85.55,85.55,0,0,0-18.63-1.88,71.2,71.2,0,0,0-23,3.4,46.41,46.41,0,0,0-16.28,9.28,39.67,39.67,0,0,0-9.88,13.77,43.2,43.2,0,0,0-3.41,17.19,30.43,30.43,0,0,0,3,13.9,35.87,35.87,0,0,0,8,10.48,53.12,53.12,0,0,0,11.53,7.85,90.09,90.09,0,0,0,13.12,5.46l8.11,2.63c7.74,2.58,13.74,5.23,17.86,7.87,5,3.23,7.58,7.49,7.58,12.66a13.51,13.51,0,0,1-2.23,7.9,15.29,15.29,0,0,1-5.25,4.68,21.84,21.84,0,0,1-6.65,2.27,37.53,37.53,0,0,1-6.58.61,50.93,50.93,0,0,1-23.43-5.46,76.46,76.46,0,0,1-11.22-6.93,1.49,1.49,0,0,0-2.3.7l-8.89,25.05a1.5,1.5,0,0,0,.66,1.8,80.36,80.36,0,0,0,10.59,5.07C481.11,226.78,493,228.64,507,228.64Z"/><path class="cls-1" d="M575.5,83.79h29A1.48,1.48,0,0,1,606,85.27v141a1.48,1.48,0,0,1-1.48,1.48h-29A1.48,1.48,0,0,1,574,226.3v-141A1.48,1.48,0,0,1,575.5,83.79Z"/><path class="cls-1" d="M396.6,83.8H369.79a1.48,1.48,0,0,0-1.39,1l-51.79,141a1.48,1.48,0,0,0,1.39,2h27.24a1.48,1.48,0,0,0,1.39-1l35.17-99.09a1.48,1.48,0,0,1,2.79,0l16.63,46.83a1.48,1.48,0,0,1-1.39,2H380.17a1.48,1.48,0,0,0-1.39,1L371,199.29a1.48,1.48,0,0,0,1.39,2h37.23a1.48,1.48,0,0,1,1.39,1l8.7,24.53a1.48,1.48,0,0,0,1.39,1h27.24a1.48,1.48,0,0,0,1.39-2L398,84.77A1.48,1.48,0,0,0,396.6,83.8Z"/><path class="cls-2" d="M13.73,71,130.27,3.68a27.46,27.46,0,0,1,27.45,0L274.27,71A27.45,27.45,0,0,1,288,94.74V229.32a27.45,27.45,0,0,1-13.73,23.78l-30.12,17.39a23.92,23.92,0,0,1-32-7.8h0l-64.26-99.41h0a4.63,4.63,0,0,0-7.82.09h0L113.8,203.88a23.33,23.33,0,0,1-39.17-25.37l49.78-76.86a23.33,23.33,0,0,1,39.17,0l67.9,104.83h0a4.67,4.67,0,0,0,8.64-2.38v-87A18.33,18.33,0,0,0,231,101.24l-77.8-44.92a18.33,18.33,0,0,0-18.33,0L57,101.24a18.33,18.33,0,0,0-9.16,15.87v89.83A18.33,18.33,0,0,0,57,222.82l62,35.78h0a4.63,4.63,0,0,0,4.62,0l33.57-19.39a23.9,23.9,0,0,1,25.16,40.63l-47.57,27.63a23.87,23.87,0,0,1-25.15,1v0l-95.9-55.37A27.45,27.45,0,0,1,0,229.32V94.74A27.46,27.46,0,0,1,13.73,71Z"/><path class="cls-3" d="M167.59,215.88l-19.66-30.35a4.68,4.68,0,0,0-7.86,0l-19.66,30.35a4.68,4.68,0,0,0,3.93,7.23h39.32A4.68,4.68,0,0,0,167.59,215.88Z"/></g></g></svg>